<?xml version="1.0" encoding="utf-8"?>
<!-- Generator: Adobe Illustrator 24.1.1, SVG Export Plug-In . SVG Version: 6.00 Build 0)  -->
<svg version="1.1" id="Capa_1" xmlns="http://www.w3.org/2000/svg" xmlns:xlink="http://www.w3.org/1999/xlink" x="0px" y="0px"
	 viewBox="0 0 452.2 512" style="enable-background:new 0 0 452.2 512;" xml:space="preserve">
<style type="text/css">
	.st0{fill:#333F50;}
</style>
<g>
	<path className="st0" d="M68.2,6.5C55-1.4,39.3-2.1,25.6,4.5l229.9,230.4l75.2-75.5L68.2,6.5z M4.5,25.8c-2.9,6.1-4.5,13-4.5,20v421.4
		c0,7.1,1.6,13.8,4.5,19.8l229.8-230.9L4.5,25.8z M255.5,277.4L26,507.9c6.1,2.8,12.6,4.1,19,4.1c8,0,16-1.9,23.2-6.3l262.5-153
		L255.5,277.4z M430.6,217.5c-0.1-0.1-0.2-0.1-0.3-0.2l-72.9-42.4l-80.8,81.2l80.8,81c0,0,73-42.6,73.1-42.6
		c13.6-8.2,21.6-22.6,21.6-38.5S444.1,225.8,430.6,217.5z"/>
</g>
</svg>
