<?xml version="1.0" encoding="utf-8"?>
<!-- Generator: Adobe Illustrator 24.1.0, SVG Export Plug-In . SVG Version: 6.00 Build 0)  -->
<svg version="1.1" xmlns="http://www.w3.org/2000/svg" xmlns:xlink="http://www.w3.org/1999/xlink" x="0px" y="0px"
	 viewBox="0 0 512 512" style="enable-background:new 0 0 512 512;" xml:space="preserve">
<style type="text/css">
	.st0{fill:#333F50;}
</style>
<g id="Layer_1">
</g>
<g id="Layer_2">
</g>
<g id="Layer_3">
	<g id="Laptop">
		<path className="st0" d="M496,344h-25l1-200c0-22.1-17.9-40-40-40H80c-22.1,0-40,17.9-40,40l-1,200H16c-4.4,0-8,3.6-8,8v32
			c0,22.1,17.9,40,40,40h416c22.1,0,40-17.9,40-40v-32C504,347.6,500.4,344,496,344z M56,144c0-13.2,10.8-24,24-24h352
			c13.2,0,24,10.7,24,24l-1,200H55L56,144z M293.4,360l-4.5,16h-66.7l-4-16H293.4z M488,384c0,13.2-10.8,24-24,24H48
			c-13.2,0-24-10.8-24-24v-24h177.8l6.5,25.9c0.9,3.6,4.1,6.1,7.8,6.1h79c3.6,0,6.7-2.4,7.7-5.8l7.4-26.2H488V384z"/>
		<path className="st0" d="M448,328V136c0-4.4-3.6-8-8-8H72c-4.4,0-8,3.6-8,8v192c0,4.4,3.6,8,8,8h368C444.4,336,448,332.4,448,328z
			 M432,320H80V144h352V320z"/>
		<path className="st0" d="M104,368H48c-4.4,0-8,3.6-8,8s3.6,8,8,8h56c4.4,0,8-3.6,8-8S108.4,368,104,368z"/>
		<path className="st0" d="M136,368h-8c-4.4,0-8,3.6-8,8s3.6,8,8,8h8c4.4,0,8-3.6,8-8S140.4,368,136,368z"/>
	</g>
	<path className="st0" d="M215.4,219.6l16.7,6.3c5.3,2,10.7,4,15.9,6c4.9,2,6.9,5.9,5.2,10.1c-1.7,4.1-5.7,5.5-10.7,3.5
		c-16.4-6.3-32.8-12.6-49.4-18.7c-3.6-1.4-6.3-3.2-6.3-7.6s2.9-6,6.5-7.3c35.6-12.4,71.2-24.8,106.8-37.4c3.4-1.2,6.8-2.1,9.9,0.9
		c3.1,3.1,2.3,6.4,1.1,9.9c-12.3,35.1-24.5,70.2-36.7,105.2c-0.3,1.1-0.7,2.1-1.1,3.2c-1.7,4.1-5.5,5.9-9.3,4.6
		c-4-1.4-5.8-5.2-4.3-9.6c4.1-12,8.3-24.1,12.6-36.2c6.4-18.5,12.9-37,19.3-55.5c0.4-1.1,1.5-2.5,0.5-3.5s-2.4,0.1-3.5,0.5
		c-23.5,8.1-46.9,16.3-70.2,24.4C217.5,218.7,216.9,219,215.4,219.6z"/>
</g>
</svg>
