<svg xmlns="http://www.w3.org/2000/svg" width="179" height="40" fill="none"><path fill="#8827D5" d="M27.7 27.2c-1.53 1.5-3.34 2.66-5.33 3.44-1.98.77-4.1 1.15-6.24 1.1-11.3 0-16.1-7.8-16.13-15.7C-.04 8.12 5.13 0 16.14 0c2.07 0 4.13.4 6.05 1.2 1.9.8 3.65 1.98 5.1 3.46L23.5 8.34c-1.98-1.88-4.63-2.9-7.37-2.87-7.36 0-10.5 5.5-10.47 10.57.04 5.1 2.96 10.3 10.48 10.3 2.86 0 5.6-1.1 7.67-3.07l3.93 3.94zM35.47 22.2c.35 2.67 2.65 4.58 6.4 4.58 1.95 0 4.5-.74 5.73-2l3.4 3.34c-2.27 2.36-5.97 3.5-9.22 3.5-7.38 0-11.8-4.58-11.8-11.45 0-6.52 4.45-11.22 11.4-11.22 7.18 0 11.68 4.43 10.84 13.26H35.47zm11.67-4.38c-.35-2.78-2.52-4.17-5.57-4.17-2.87 0-5.2 1.4-6 4.17h11.57zM59.8.6v30.42h-5.3V.62h5.3zM67.54 22.2c.35 2.67 2.65 4.58 6.4 4.58 1.95 0 4.5-.74 5.73-2l3.4 3.34c-2.26 2.36-5.96 3.5-9.22 3.5-7.37 0-11.78-4.58-11.78-11.45 0-6.52 4.43-11.22 11.4-11.22 7.16 0 11.66 4.43 10.82 13.26H67.53zm11.67-4.38c-.34-2.78-2.5-4.17-5.55-4.17-2.87 0-5.22 1.4-6 4.17H79.2zM91.94.6v11.9c1.26-2.23 4.8-3.45 7.05-3.45 6.25 0 10.9 3.83 10.9 11.23 0 7.04-4.74 11.22-11.05 11.22-2.62 0-5.26-.88-6.92-3.44l-.35 2.96h-4.96V.62h5.32zm.35 19.68c-.08 1.6.5 3.18 1.6 4.36 1.08 1.2 2.6 1.9 4.2 1.96.14 0 .27 0 .4 0 3.4 0 6.1-2.56 6.1-6.3 0-3.87-2.7-6.27-6.1-6.27-1.62-.02-3.2.6-4.36 1.75-1.17 1.14-1.83 2.7-1.85 4.32 0 .06 0 .12 0 .18zM135.62 9.6L122.52 40h-5.82l4.03-9.28-8.6-21.1h6.18l3.27 9.28 2.04 6.04 2.23-5.92 3.92-9.4 5.87-.02zM147.2 3.56v6.08h5.93v4.57h-5.97v9.27c0 2.05 1.13 3.07 2.8 3.07.88-.02 1.76-.25 2.56-.65l1.47 4.5c-1.4.6-2.9.9-4.4.92-4.65.18-7.7-2.45-7.7-7.82v-9.3h-4V9.65h4V4.1l5.3-.54zM161.73 22.2c.35 2.67 2.65 4.58 6.4 4.58 1.95 0 4.52-.74 5.73-2l3.4 3.34c-2.26 2.36-5.96 3.5-9.22 3.5-7.37 0-11.8-4.58-11.8-11.45 0-6.52 4.45-11.22 11.4-11.22 7.18 0 11.68 4.43 10.84 13.26h-16.75zm11.68-4.38c-.34-2.78-2.52-4.17-5.56-4.17-2.88 0-5.22 1.4-6 4.17h11.57z"/></svg>