<?xml version="1.0" encoding="utf-8"?>
<!-- Generator: Adobe Illustrator 24.1.0, SVG Export Plug-In . SVG Version: 6.00 Build 0)  -->
<svg version="1.1" id="Layer_1" xmlns="http://www.w3.org/2000/svg" xmlns:xlink="http://www.w3.org/1999/xlink" x="0px" y="0px"
	 viewBox="0 0 512 512" style="enable-background:new 0 0 512 512;" xml:space="preserve">
<style type="text/css">
	.st0{fill:#333F50;}
	.st1{fill:none;stroke:#333F50;stroke-width:16;stroke-miterlimit:10;}
	.st2{fill:none;stroke:#333F50;stroke-width:16;stroke-linecap:round;stroke-miterlimit:10;}
</style>
<g id="Layer_2_1_">
	<g>
		<path className="st0" d="M341,376.5h-88c-4.4,0-8,3.6-8,8s3.6,8,8,8h88c4.4,0,8-3.6,8-8S345.4,376.5,341,376.5z"/>
		<path className="st0" d="M382,376.5h-8c-4.4,0-8,3.6-8,8s3.6,8,8,8h8c4.4,0,8-3.6,8-8S386.4,376.5,382,376.5z"/>
		<path className="st1" d="M429.9,199v186c0,17-13.8,30.8-30.8,30.8H45.2c-17,0-30.8-13.8-30.9-30.8V142.7c0-17,13.8-30.9,30.9-30.9h258
			"/>
		<path className="st2" d="M400.9,18.3l100.8,103.9c0.4,0.4,0.4,1.1,0,1.6L400.9,228c0,0.1-0.1,0.1-0.2,0l-0.1-0.1l0.6-69.1
			c0-0.6-0.5-1.1-1.1-1.1c-30.3,0.3-138.5-7.3-148.5,54.4c-0.2,1.3-2.2,0.8-2.2-0.4c1.4-30.2,18.3-121.3,150-129.3
			c0.6,0,1-0.5,1-1.1V18.4c0-0.1,0.1-0.2,0.2-0.2C400.9,18.2,400.9,18.2,400.9,18.3z"/>
	</g>
</g>
</svg>
