<?xml version="1.0" encoding="utf-8"?>
<!-- Generator: Adobe Illustrator 23.0.2, SVG Export Plug-In . SVG Version: 6.00 Build 0)  -->
<svg version="1.1" id="Layer_1" xmlns="http://www.w3.org/2000/svg" xmlns:xlink="http://www.w3.org/1999/xlink" x="0px" y="0px"
	 viewBox="0 0 64 64" style="enable-background:new 0 0 64 64;" xml:space="preserve">
<style type="text/css">
	.st0{fill:#333F50;}
</style>
<path className="st0" d="M57.06,19.77c0.04,0.56,0.04,1.13,0.04,1.69c0,17.16-13.06,36.94-36.94,36.94c-7.36,0-14.19-2.13-19.94-5.83
	c1.05,0.12,2.05,0.16,3.13,0.16c6.07,0,11.66-2.05,16.12-5.55c-5.71-0.12-10.49-3.86-12.14-9c0.8,0.12,1.61,0.2,2.45,0.2
	c1.17,0,2.33-0.16,3.42-0.44C7.27,36.73,2.8,31.51,2.8,25.19v-0.16C4.53,26,6.54,26.6,8.67,26.68c-3.5-2.33-5.79-6.31-5.79-10.81
	c0-2.41,0.64-4.62,1.77-6.55c6.39,7.88,16,13.02,26.77,13.58c-0.2-0.96-0.32-1.97-0.32-2.97c0-7.15,5.79-12.98,12.98-12.98
	c3.74,0,7.11,1.57,9.49,4.1c2.93-0.56,5.75-1.65,8.24-3.13c-0.96,3.01-3.01,5.55-5.71,7.15c2.61-0.28,5.14-1,7.48-2.01
	C61.81,15.63,59.6,17.92,57.06,19.77L57.06,19.77z"/>
</svg>
