<?xml version="1.0" encoding="utf-8"?>
<!-- Generator: Adobe Illustrator 24.1.0, SVG Export Plug-In . SVG Version: 6.00 Build 0)  -->
<svg version="1.1" id="Layer_1" xmlns="http://www.w3.org/2000/svg" xmlns:xlink="http://www.w3.org/1999/xlink" x="0px" y="0px"
	 viewBox="0 0 512 512" style="enable-background:new 0 0 512 512;" xml:space="preserve">
<style type="text/css">
	.st0{fill:#333F50;}
</style>
<g id="Layer_1_1_">
	<g id="VDO">
		<path className="st0" d="M500.2,144c-2.4-1.5-5.3-1.6-7.8-0.4L408,185.9v-43.1c0-22.1-17.9-40-40-40H48c-22,0-40,17.9-40,40v240
			c0,22.1,17.9,40,40,40h320c22.1,0,40-17.9,40-40v-43.1l84.4,42.2c3.9,2,8.6,0.5,10.6-3.4c0-0.1,0.1-0.1,0.1-0.2
			c0.6-1.1,0.8-2.4,0.8-3.6V150.8C504,148,502.6,145.4,500.2,144z M392,382.8c0,13.2-10.8,24-24,24H48c-13.2,0-24-10.8-24-24v-240
			c0-13.2,10.8-24,24-24h320c13.2,0,24,10.8,24,24V382.8z M488,361.9l-80-40V203.7l80-40V361.9z"/>
		<path className="st0" d="M267.6,255.6l-112-56c-3.9-2-8.6-0.5-10.6,3.4c0,0.1-0.1,0.1-0.1,0.2c-0.6,1.1-0.8,2.4-0.8,3.6v112
			c0,4.4,3.6,8,8,8c1.2,0,2.5-0.3,3.6-0.8l112-56c3.9-1.9,5.6-6.7,3.6-10.6v-0.1C270.5,257.7,269.2,256.5,267.6,255.6z M160,305.9
			v-86.1l86.1,43.1L160,305.9z"/>
		<path className="st0" d="M311,366.8h-72c-4.4,0-8,3.6-8,8s3.6,8,8,8h72c4.4,0,8-3.6,8-8S315.5,366.8,311,366.8z"/>
		<path className="st0" d="M343,366.8h-8c-4.4,0-8,3.6-8,8s3.6,8,8,8h8c4.4,0,8-3.6,8-8S347.5,366.8,343,366.8z"/>
	</g>
</g>
</svg>
