<?xml version="1.0" encoding="utf-8"?>
<!-- Generator: Adobe Illustrator 24.1.1, SVG Export Plug-In . SVG Version: 6.00 Build 0)  -->
<svg version="1.1" id="Layer_1" xmlns="http://www.w3.org/2000/svg" xmlns:xlink="http://www.w3.org/1999/xlink" x="0px" y="0px"
	 viewBox="0 0 639.4 447.6" style="enable-background:new 0 0 639.4 447.6;" xml:space="preserve">
<style type="text/css">
	.st0{fill:#333F50;}
</style>
<path className="st0" d="M626.2,70c-7.4-27.4-29-49-56.4-56.4C519.8,0,319.7,0,319.7,0S119.6,0,69.5,13.2c-26.9,7.4-49,29.5-56.4,56.9
	C0,120.1,0,223.8,0,223.8s0,104.3,13.2,153.8c7.4,27.4,29,49,56.4,56.4c50.6,13.7,250.2,13.7,250.2,13.7s200.1,0,250.2-13.2
	c27.4-7.4,49-29,56.4-56.4c13.2-50,13.2-153.8,13.2-153.8S639.9,120.1,626.2,70z M256,319.7V128l166.4,95.9L256,319.7z"/>
</svg>
